<?xml version="1.0" encoding="utf-8"?>
<!-- Generator: Adobe Illustrator 25.2.0, SVG Export Plug-In . SVG Version: 6.00 Build 0)  -->
<svg version="1.1" id="Layer_1" focusable="false" xmlns="http://www.w3.org/2000/svg" xmlns:xlink="http://www.w3.org/1999/xlink"
	 x="0px" y="0px" viewBox="0 0 637.1 512" style="enable-background:new 0 0 637.1 512;" xml:space="preserve">
<style type="text/css">
	.st0{fill:none;}
	.st1{fill:#4E6959;}
</style>
<path d="M416,320h-96c-17.6,0-32-14.4-32-32s14.4-32,32-32h46.6l-0.3-64.7L320,192c-52.9,0-96,43.1-96,96s43.1,96,96,96h96
	c17.6,0,32,14.4,32,32s-14.4,32-32,32H185.5c-16,24.8-33.8,47.7-47.3,64H416c52.9,0,96-43.1,96-96S468.9,320,416,320z M96,256
	c-53,0-96,43-96,96s96,160,96,160s96-107,96-160S149,256,96,256z M96,384c-17.7,0-32-14.3-32-32s14.3-32,32-32s32,14.3,32,32
	S113.7,384,96,384z"/>
<path class="st0" d="M96,256c-53,0-96,43-96,96s96,160,96,160s96-107,96-160S149,256,96,256z"/>
<path class="st1" d="M96,256c-53,0-96,43-96,96s96,160,96,160s96-107,96-160S149,256,96,256z M106.5,382.3
	C83.6,389.6,62.7,372,64,349.9C65,334,77.9,321,93.9,320c22.1-1.4,39.7,19.6,32.4,42.5C123.4,371.9,115.9,379.4,106.5,382.3z"/>
<path d="M504.2,95.6v33.8c13,2.9,24.5,7.7,36.5,11.1v-33.9C527.8,103.8,516.2,98.9,504.2,95.6L504.2,95.6z M615.1,34.6
	c-17,7.9-38,15.8-58.1,15.8c-26.6,0-48.6-17.3-82-17.3c-12.4,0-23.5,2.2-33.8,6c1.4-3.6,2-7.5,1.8-11.7c-0.9-14.1-12.5-25.4-26.6-26
	c-15.9-0.6-28.9,12.1-28.9,27.8c0,9.4,4.7,17.8,11.9,22.8l-0.8,204h32.5v-59.3c14-6,31.6-11,56.8-11c26.6,0,48.6,17.3,82,17.3
	c23.9,0,43-8.1,60.8-20.3c4.3-3,6.9-7.8,6.9-13.1V49C637.6,37.4,625.6,29.7,615.1,34.6z M467.7,162.9c-12.8,1.3-24.8,4.1-36.5,8.2
	v-35c13-4.6,23.6-7.4,36.5-8.6V162.9z M613.8,96.2c-11.7,4.9-23,9.7-36.5,11.9v35.3c12.3-1.7,25.5-5.9,36.5-12.9v35
	c-12.5,8-24.1,12.3-36.5,13.5v-35.5c-13.4,1.8-23.8,0.7-36.5-2.8V174c-11.9-3.7-23.5-8.3-36.5-10.6v-34c-9.8-2.2-20.3-3.4-36.5-1.9
	V92.8c-11.1,1.5-22.1,5.1-36.5,10.4v-35c16.5-6.1,24.9-9.8,36.5-10.9v35.5c13.4-1.8,24-0.6,36.5,2.8V62.2
	c11.8,3.7,23.4,8.3,36.5,10.6v34c11.8,2.6,23.6,3.4,36.5,1.3V72.3c13.4-2.4,26-6.8,36.5-11.2V96.2z"/>
</svg>
