<svg id="Layer_1" data-name="Layer 1" xmlns="http://www.w3.org/2000/svg" viewBox="0 0 894.71 268.84"><defs><style>.cls-1{fill:#fff;}</style></defs><path class="cls-1" d="M386.29,78.56h26.64l30.24,86.76H417.52l-4-12.88h-28l-3.84,12.88H355.92Zm4.57,56.15h17.37l-8.56-28.39h-.25Z" transform="translate(-52.23 -40.21)"/><path class="cls-1" d="M520.26,71.75h23.43v93.57H520.26Z" transform="translate(-52.23 -40.21)"/><path class="cls-1" d="M555.08,71.75h23.43v32.84A23.81,23.81,0,0,1,596.6,96c15.12,0,25.29,11.27,25.29,34.82,0,23.8-10.66,35.82-24.54,35.82-8.92,0-15-3.47-20.2-8.92l-1.49,7.56H555.08Zm33.71,77.83c7.07,0,10.05-8.06,10.05-18.72,0-11.15-3-17.6-10.05-17.6-4.09,0-7.42,2-10.28,5v26.65C581.61,148.09,584.7,149.58,588.79,149.58Z" transform="translate(-52.23 -40.21)"/><path class="cls-1" d="M662.77,95.92c19.83,0,34.83,14.12,34.83,34.94,0,22.31-14.14,36.07-34.83,36.07-20.95,0-34.95-13.76-34.95-36.07C627.82,110,642.81,95.92,662.77,95.92Zm0,54.15c7.56,0,11.4-7.43,11.4-19.08,0-11-4.34-18.22-11.4-18.22S651.24,120,651.24,131C651.24,142.64,655.09,150.07,662.77,150.07Z" transform="translate(-52.23 -40.21)"/><path class="cls-1" d="M706,97.53h21.82l1.35,9.54c5.21-9.42,11.78-11.65,18.85-11.65a29.17,29.17,0,0,1,7.44,1l-2.72,21.2a30.56,30.56,0,0,0-9.55-1.37c-6.32,0-10.54,3.59-13.88,10.16v38.92H706Z" transform="translate(-52.23 -40.21)"/><path class="cls-1" d="M764.8,160.24a14.4,14.4,0,0,1-3.84-9.55c0-4.58,2.48-8.92,7.19-11.64a22.21,22.21,0,0,1-9.67-18.59c0-14.75,12.89-24.54,30.24-24.54a34.72,34.72,0,0,1,19.83,5.69c4.71-3.22,10.91-5.44,19.83-5.44v13.75a49.71,49.71,0,0,0-11.78,1.24,22.63,22.63,0,0,1,2,9.3c0,15.86-14.5,24.66-29.87,24.66a39.59,39.59,0,0,1-9.54-1.12,3.5,3.5,0,0,0-1.86,3c0,2.73,3.09,3.72,15.86,4,21.94.5,33.22,6.69,33.22,20.08,0,13-11.16,20.33-35.95,20.33-21.31,0-34.82-5.58-34.82-17.6C755.63,167.67,758.73,163.46,764.8,160.24Zm14.5,7.43a6.89,6.89,0,0,0-2.48,5.46c0,3.46,3.35,5.2,13.63,5.2,11.16,0,15.12-1.36,15.12-4.58s-2.35-4.46-14-4.72A67.3,67.3,0,0,1,779.3,167.67ZM797,120.58c0-6.2-3.1-10.29-8.3-10.29-5,0-8.31,4.09-8.31,10.29s3.35,10,8.31,10C793.92,130.61,797,126.65,797,120.58Z" transform="translate(-52.23 -40.21)"/><path class="cls-1" d="M465.39,201.45c19.83,0,34.82,14.12,34.82,35,0,22.3-14.13,36.06-34.82,36.06-20.95,0-34.95-13.76-34.95-36.06C430.44,215.57,445.43,201.45,465.39,201.45Zm0,54.16c7.56,0,11.4-7.44,11.4-19.09,0-11-4.34-18.22-11.4-18.22s-11.53,7.19-11.53,18.22C453.86,248.17,457.7,255.61,465.39,255.61Z" transform="translate(-52.23 -40.21)"/><path class="cls-1" d="M508.58,203.06h22.31l.87,6.57c5.2-4.72,12.64-8.18,18.83-8.18,8.93,0,14.25,3.46,17.11,9.17,6.69-6.07,13.38-9.17,21.31-9.17,14,0,20.58,9.17,20.58,24.29v45.11H586.28V225.12c0-4.59-2-6.94-5.57-6.94-3.34,0-6.82,2-10,5.45,0,1.36.12,2.85.12,4.34v42.88H547.5V225.12c0-4.7-1.87-6.94-5.58-6.94-3.47,0-7.56,2.35-10,5.95v46.72h-23.3Z" transform="translate(-52.23 -40.21)"/><path class="cls-1" d="M621,203.06h22.31l.86,6.57c5.21-4.72,12.65-8.18,18.85-8.18,8.92,0,14.25,3.46,17.1,9.17,6.69-6.07,13.39-9.17,21.32-9.17,14,0,20.57,9.17,20.57,24.29v45.11h-23.3V225.12c0-4.59-2-6.94-5.58-6.94-3.34,0-6.81,2-10,5.45,0,1.36.13,2.85.13,4.34v42.88h-23.3V225.12c0-4.7-1.86-6.94-5.57-6.94-3.48,0-7.57,2.35-10,5.95v46.72H621Z" transform="translate(-52.23 -40.21)"/><path class="cls-1" d="M732.9,203.06h23.29v45.11c0,4.34,1.75,7.44,6.46,7.44,4.08,0,7.67-2.36,10.9-6.07V203.06h23.3v67.79H775l-1.25-7.43c-4.46,4.83-11.89,9-19.7,9-15.24,0-21.19-8.92-21.19-24.91Z" transform="translate(-52.23 -40.21)"/><path class="cls-1" d="M808.23,203.06h22.19l1,7.31c4.71-4.71,11.53-8.92,19.58-8.92,15.37,0,21.19,8.92,21.19,24.78v44.62h-23.3V225.61c0-4.46-1.86-7.43-6.56-7.43-3.85,0-7.69,2.24-10.79,6.19v46.48h-23.3Z" transform="translate(-52.23 -40.21)"/><path class="cls-1" d="M915,201.45c19.58,0,32,12,32,30.86a59.51,59.51,0,0,1-.87,9.91H903.81c1.24,8.43,5.46,12.15,13.27,12.15A35.77,35.77,0,0,0,935.29,249l9.43,14c-8.93,6.57-19.09,9.42-29.88,9.42-19.33,0-34.69-13-34.69-35.69C880.15,214.59,896.25,201.45,915,201.45Zm-10.9,28.75h21.19c0-7.19-2.73-12.64-9.55-12.64C910.26,217.56,905.55,221.4,904.07,230.2Z" transform="translate(-52.23 -40.21)"/><path class="cls-1" d="M507.21,146.35V120.94c0-15-8-25-29.12-25-8.7,0-18.61,2.56-28.17,7-.33.15-3.15,1.56-3.48,1.72l6,17.26,3.78-1.86c8.92-4.16,14.82-6.2,20.61-6.2,4.71,0,7.31,2,7.31,6.2v3.72c-29,2.6-38.54,12.39-38.54,25.16,0,10.78,8.3,18,19.7,18,9.43,0,15.37-3.22,21.2-9.92,4.71,7.2,10.65,8.68,25.28,8.68V150.44C509,150.44,507.21,149.08,507.21,146.35Zm-23,.13a12.17,12.17,0,0,1-9.41,4.59c-3.72,0-6.08-2.48-6.08-5.58,0-6.32,6.44-9.42,15.49-10Z" transform="translate(-52.23 -40.21)"/><path class="cls-1" d="M358.72,184.13h23.93v33.49h-.27l24-33.49h25.81l-29.42,41.5v.24l32,45H406.7L382.38,235.7h.27v35.18H358.72Z" transform="translate(-52.23 -40.21)"/><path class="cls-1" d="M186.66,40.21c-74.12,0-134.43,60.31-134.43,134.43s60.31,134.42,134.43,134.42,134.42-60.3,134.42-134.42S260.78,40.21,186.66,40.21ZM283.6,184.33l6.84,8.59a.72.72,0,0,1-.67,1.16l-10.87-1.64a.7.7,0,0,0-.78.45l-4,10.21a.72.72,0,0,1-1.34,0l-4-10.22a.7.7,0,0,0-.77-.44l-10.85,1.64a.72.72,0,0,1-.68-1.16l6.86-8.59a.72.72,0,0,0,0-.9l-6.86-8.57a.73.73,0,0,1,.67-1.17L268,175.33a.71.71,0,0,0,.77-.45l4-10.2a.72.72,0,0,1,1.34,0l4,10.2a.72.72,0,0,0,.78.45l10.87-1.64a.72.72,0,0,1,.67,1.17l-6.84,8.58A.71.71,0,0,0,283.6,184.33Zm-37.49,38.76c.67-.05,1.36-.07,2-.07h1.15a1.44,1.44,0,0,1,1.34,1.87,59.3,59.3,0,0,1-2.47,6.51,1.42,1.42,0,0,1-1.25.85c-10.09.45-19.09,6-29.47,6-10.88,0-20.18-6.15-30.81-6.15s-20,6.13-30.83,6.15c-10.41,0-19.43-5.55-29.58-6a1.46,1.46,0,0,1-1.26-.85,61.29,61.29,0,0,1-2.45-6.51,1.44,1.44,0,0,1,1.35-1.87h1.24c.69,0,1.38,0,2,.07a1.44,1.44,0,0,0,1.54-1.44V188.56c-.12-9.15-1.84-16.54-7.91-22.11h0a1.42,1.42,0,0,1-.46-1v-1h0v-13.1a1.45,1.45,0,0,1,1.44-1.44h9.95a1.44,1.44,0,0,1,1.44,1.44v4.91a1.45,1.45,0,0,0,1.44,1.44h8.24a1.44,1.44,0,0,0,1.44-1.44v-4.91a1.45,1.45,0,0,1,1.45-1.44h9.94a1.45,1.45,0,0,1,1.45,1.44v4.91a1.44,1.44,0,0,0,1.44,1.44h8.24a1.45,1.45,0,0,0,1.44-1.44v-4.91a1.44,1.44,0,0,1,1.44-1.44h9.95a1.45,1.45,0,0,1,1.44,1.44v4.91a1.44,1.44,0,0,0,1.44,1.44h8.24a1.45,1.45,0,0,0,1.44-1.44v-4.91a1.45,1.45,0,0,1,1.44-1.44h10a1.44,1.44,0,0,1,1.44,1.44v4.91a1.45,1.45,0,0,0,1.44,1.44h8.24a1.44,1.44,0,0,0,1.44-1.44v-4.91a1.45,1.45,0,0,1,1.44-1.44h10a1.45,1.45,0,0,1,1.44,1.44v4.91a1.44,1.44,0,0,0,1.44,1.44h8.22a1.44,1.44,0,0,0,1.44-1.44v-4.91a1.45,1.45,0,0,1,1.45-1.44h9.94a1.45,1.45,0,0,1,1.45,1.44v9.23h0v4.9a1.47,1.47,0,0,1-.43,1h0c-6.1,5.57-7.81,13-7.94,22.13v33.1A1.43,1.43,0,0,0,246.11,223.09Zm-59.46,24.68c-10.66,0-20,6.13-30.83,6.13-5.24,0-10.13-1.38-15-2.83a1.52,1.52,0,0,1-.49-.25,55.12,55.12,0,0,1-8.84-8.67l-.21-.27a1.44,1.44,0,0,1,1.43-2.3c7.76,1.67,15,5.12,23.08,5.09,10.68,0,20-6.16,30.85-6.16s20.15,6.16,30.82,6.16c8,0,15.23-3.38,22.94-5.06a1.44,1.44,0,0,1,1.43,2.31l-.19.23a54.12,54.12,0,0,1-8.89,8.72,1.38,1.38,0,0,1-.48.25c-4.79,1.42-9.65,2.82-14.82,2.78C206.58,253.9,197.28,247.77,186.65,247.77Zm22.65,14.34a83.49,83.49,0,0,1-16.91,2.72c-3.59.21-5.83.1-5.83.1s-2.24.11-5.81-.1a84,84,0,0,1-16.88-2.7,1.44,1.44,0,0,1,.06-2.79c7.49-1.76,14.66-5.13,22.72-5.13s15.14,3.34,22.61,5.11A1.44,1.44,0,0,1,209.3,262.11Zm-72.82-144a.29.29,0,0,1,.11-.11v-3.86a1.44,1.44,0,0,1,1.44-1.44h4.05a1.45,1.45,0,0,1,1.45,1.44v2.37a1.43,1.43,0,0,0,1.44,1.44h7.66a1.44,1.44,0,0,0,1.44-1.44v-2.37a1.44,1.44,0,0,1,1.44-1.44h5.74a1.44,1.44,0,0,1,1.44,1.44v2h0v.32a1.44,1.44,0,0,0,1.45,1.44h3.57a1.44,1.44,0,0,1,1.43,1.57L167,143.81a1.44,1.44,0,0,1-1.44,1.31H121a1.43,1.43,0,0,1-1.19-2.24Zm-.6-10.94c0-2.89,2.92-3.21,4.17-4.39a.7.7,0,0,1,1,0c1.25,1.14,4.16,1.36,4.16,4.4a3.29,3.29,0,0,1-.66,1.91,1.44,1.44,0,0,1-1.15.57h-5.71a1.38,1.38,0,0,1-1.1-.52A3.19,3.19,0,0,1,135.88,107.16Zm16.66-.65c0-3.74,3.84-4.1,5.36-5.65a.72.72,0,0,1,1,0c1.52,1.51,5.37,1.73,5.37,5.66a4.14,4.14,0,0,1-1,2.6,1.46,1.46,0,0,1-1.12.53h-7.57a1.41,1.41,0,0,1-1.11-.53A4.15,4.15,0,0,1,152.54,106.51Zm30.35-18.4a4.25,4.25,0,0,1-.33-1.64,4.08,4.08,0,1,1,7.81,1.63.36.36,0,0,0,.26.51c7.53,1.41,13.1,6.69,13.1,12.82a12.1,12.1,0,0,1-3.91,8.65,1.49,1.49,0,0,1-1,.4H174.43a1.51,1.51,0,0,1-1-.4,12.15,12.15,0,0,1-3.92-8.65c0-6.13,5.59-11.41,13.12-12.82A.36.36,0,0,0,182.89,88.11Zm10.57,57a1.43,1.43,0,0,1-1.44-1.44v-1h0v-3.89l0,0,.12-14.39c-.23-3.29-2.24-5-5.52-5s-5.43,1.8-5.65,5l-.07,17.3v2a1.44,1.44,0,0,1-1.44,1.44H173a1.43,1.43,0,0,1-1.44-1.55l2.24-27.85a1.43,1.43,0,0,1,1.43-1.32h22.93a1.44,1.44,0,0,1,1.43,1.32l2.22,27.85a1.44,1.44,0,0,1-1.44,1.55h-6.86Zm58.82,0H207.75a1.45,1.45,0,0,1-1.44-1.31l-2.16-24.3a1.45,1.45,0,0,1,1.44-1.57h3.55a1.43,1.43,0,0,0,1.44-1.44v-2.37a1.45,1.45,0,0,1,1.44-1.44h5.74a1.44,1.44,0,0,1,1.44,1.44v2.37a1.44,1.44,0,0,0,1.44,1.44h7.67a1.44,1.44,0,0,0,1.44-1.44v-2.11h0v-.26a1.44,1.44,0,0,1,1.44-1.44h4.05a1.45,1.45,0,0,1,1.45,1.44v3.81h0l16.77,24.94A1.44,1.44,0,0,1,252.28,145.12ZM209,106.51c0-3.93,3.84-4.15,5.36-5.66a.73.73,0,0,1,1,0c1.52,1.55,5.37,1.91,5.35,5.65a4.08,4.08,0,0,1-1,2.6,1.41,1.41,0,0,1-1.11.53h-7.56a1.47,1.47,0,0,1-1.12-.52A4,4,0,0,1,209,106.51Zm19.29.65c0-3,2.93-3.26,4.17-4.4a.71.71,0,0,1,1,0c1.26,1.19,4.19,1.51,4.18,4.4a3.19,3.19,0,0,1-.69,2,1.39,1.39,0,0,1-1.11.52h-5.71a1.4,1.4,0,0,1-1.11-.52A3.27,3.27,0,0,1,228.26,107.16ZM95.52,184.7a11.94,11.94,0,0,0,20,4,.72.72,0,0,1,1.23.68,17.92,17.92,0,1,1-12.18-21.91.72.72,0,0,1-.07,1.4,11.92,11.92,0,0,0-8.94,15.79Z" transform="translate(-52.23 -40.21)"/><path class="cls-1" d="M151.71,186.4a4.54,4.54,0,0,0-4.51,4.21v35.9a.59.59,0,0,0,.46.57,35.14,35.14,0,0,0,8.06,1h.11a.43.43,0,0,0,.44-.44v-37c0-.06,0-.11,0-.16A4.52,4.52,0,0,0,151.71,186.4Z" transform="translate(-52.23 -40.21)"/><path class="cls-1" d="M221.64,186.4a4.57,4.57,0,0,0-4.55,4.26v37.07a.38.38,0,0,0,.37.39,34.62,34.62,0,0,0,7.6-.91,1.43,1.43,0,0,0,1.14-1.41V190.58A4.57,4.57,0,0,0,221.64,186.4Z" transform="translate(-52.23 -40.21)"/><path class="cls-1" d="M221.62,174.92a15.77,15.77,0,0,0-10.94,4.41,1.43,1.43,0,0,1-2.33-.56,23.07,23.07,0,0,0-43.42,0,1.43,1.43,0,0,1-2.33.56A15.8,15.8,0,0,0,135.87,190v33.62a1.43,1.43,0,0,0,1.06,1.39l1,.28a1.45,1.45,0,0,0,1.84-1.39V190.15a11.95,11.95,0,0,1,23.85-.29v1.81l0,9.45-.06,25.11a1.44,1.44,0,0,0,1.79,1.41l1-.27a1.44,1.44,0,0,0,1.07-1.39l.08-34.18c0-.35.05-.73.05-1.09s0-.66-.05-1l0-3.35a19.21,19.21,0,0,1,38.42,0v3.54c0,.28,0,.53,0,.79s0,.53,0,.79l0,34.45a1.44,1.44,0,0,0,1.07,1.39l1,.27a1.43,1.43,0,0,0,1.8-1.39l0-25.14V190a11.94,11.94,0,0,1,23.84.13V223.9a1.45,1.45,0,0,0,1.84,1.39l1-.28a1.45,1.45,0,0,0,1.06-1.39l0-33.62A15.79,15.79,0,0,0,221.62,174.92Z" transform="translate(-52.23 -40.21)"/><path class="cls-1" d="M186.6,174.8a11.79,11.79,0,0,0-11.77,11.11l0,.65v36.88a.59.59,0,0,0,.59.58h.13a44.54,44.54,0,0,1,22.12,0l.13,0a.62.62,0,0,0,.37-.13.57.57,0,0,0,.22-.46V186.57l0-.65A11.7,11.7,0,0,0,186.6,174.8Z" transform="translate(-52.23 -40.21)"/></svg>